<svg width="12" height="14" viewBox="0 0 12 14" fill="none" xmlns="http://www.w3.org/2000/svg">
<path d="M5.8457 6.61523C5.99219 6.61523 6.10352 6.56836 6.18555 6.48047L8.59961 4.05469C8.70508 3.95508 8.74609 3.83789 8.74609 3.70312C8.74609 3.57422 8.69336 3.44531 8.59961 3.35156L6.18555 0.902344C6.10352 0.808594 5.98633 0.761719 5.8457 0.761719C5.58203 0.761719 5.38281 0.972656 5.38281 1.24219C5.38281 1.36523 5.42969 1.48242 5.51172 1.57617L7.07617 3.11133C6.74219 3.05273 6.40234 3.01758 6.0625 3.01758C3.19141 3.01758 0.882812 5.32031 0.882812 8.19141C0.882812 11.0684 3.19141 13.377 6.0625 13.377C8.93359 13.377 11.2363 11.0684 11.2363 8.19141C11.2363 7.91016 11.0371 7.70508 10.75 7.70508C10.4746 7.70508 10.293 7.91016 10.293 8.19141C10.293 10.5469 8.41211 12.4336 6.0625 12.4336C3.71289 12.4336 1.82617 10.5469 1.82617 8.19141C1.82617 5.8418 3.71289 3.96094 6.0625 3.96094C6.50781 3.96094 6.91797 3.99609 7.26953 4.07227L5.51758 5.8125C5.42969 5.90625 5.38281 6.02344 5.38281 6.14648C5.38281 6.41602 5.58203 6.61523 5.8457 6.61523Z" fill="#797979"/>
</svg>
