<svg width="9" height="12" viewBox="0 0 9 12" fill="none" xmlns="http://www.w3.org/2000/svg">
<path d="M1.77344 11.9316H7.35156C8.10742 11.9316 8.47656 11.5566 8.47656 10.7363V6.43555C8.47656 5.69727 8.17188 5.31641 7.54492 5.25195V3.77539C7.54492 1.56641 6.09766 0.5 4.5625 0.5C3.02734 0.5 1.58008 1.56641 1.58008 3.77539V5.28125C1.00586 5.36914 0.648438 5.74414 0.648438 6.43555V10.7363C0.648438 11.5566 1.01758 11.9316 1.77344 11.9316ZM2.52344 3.65234C2.52344 2.18164 3.4668 1.40234 4.5625 1.40234C5.6582 1.40234 6.60156 2.18164 6.60156 3.65234V5.24609L2.52344 5.25195V3.65234Z" fill="#9288B1"/>
</svg>
