<svg width="32" height="32" viewBox="0 0 32 32" fill="none" xmlns="http://www.w3.org/2000/svg">
<path d="M16.0427 0H15.9999H15.9571C7.16354 0 0 7.20628 0 16C0 24.8365 7.16354 32 16 32C24.8365 32 32 24.8365 32 16C32 7.20643 24.8365 0 16.0429 0H16.0427ZM10.8953 2.65944C9.56562 4.20368 8.49323 6.34845 7.80683 8.92233C6.64858 8.49325 5.57619 7.93581 4.67554 7.33527C6.2626 5.23332 8.40737 3.60314 10.8953 2.65944ZM3.68902 8.75059C4.76141 9.47978 6.00522 10.0803 7.37803 10.5949C7.07762 12.0105 6.90616 13.5548 6.86338 15.1418H1.716C1.88745 12.8256 2.57353 10.638 3.68904 8.75052L3.68902 8.75059ZM1.71568 16.8578H6.86305C6.90584 18.4021 7.07759 19.9036 7.33492 21.2761C5.96211 21.7907 4.67548 22.3913 3.60309 23.1204C2.53071 21.2761 1.8443 19.1313 1.71562 16.8578H1.71568ZM4.58967 24.579C5.49063 23.9357 6.56302 23.4208 7.76401 22.9489C8.45041 25.5655 9.56562 27.7531 10.8953 29.3404C8.36455 28.3967 6.17696 26.7238 4.58967 24.579ZM15.142 30.1982C12.654 29.6405 10.5092 26.5951 9.39404 22.4342C11.1528 21.9623 13.1259 21.6622 15.142 21.5763V30.1982ZM15.142 19.8604C12.9972 19.9463 10.8952 20.2464 9.00806 20.7614C8.75073 19.5176 8.62207 18.1875 8.57898 16.8578H15.142L15.142 19.8604ZM15.142 15.1421H8.57895C8.62174 13.7265 8.79349 12.3968 9.05081 11.1098C10.9383 11.6245 12.9972 11.9249 15.142 11.9677L15.142 15.1421ZM15.142 10.252C13.1259 10.2092 11.1956 9.90881 9.43686 9.43692C10.5521 5.36193 12.6968 2.35933 15.142 1.80153V10.252ZM16.8576 1.80161C19.3028 2.35934 21.4476 5.36193 22.5627 9.437C20.8039 9.90886 18.8737 10.209 16.8576 10.2521V1.80161ZM16.8576 11.9678C19.0024 11.882 21.0613 11.5818 22.9488 11.0669C23.2061 12.3538 23.3778 13.7263 23.4206 15.0991H16.8576L16.8576 11.9678ZM16.8576 16.8579H23.4206C23.3778 18.2307 23.2492 19.5173 22.9915 20.7615C21.1044 20.2468 19.0024 19.9464 16.8576 19.8605L16.8576 16.8579ZM16.8576 30.1984V21.5764C18.8737 21.6623 20.8467 21.9196 22.6055 22.4342C21.4903 26.5951 19.3456 29.5978 16.8576 30.1983V30.1984ZM21.1043 29.3406C22.4771 27.7535 23.5495 25.5657 24.2356 22.9491C25.4367 23.3781 26.4663 23.9356 27.41 24.5792C25.8226 26.7239 23.6351 28.3969 21.1043 29.3406ZM28.3537 23.1635C27.2814 22.4344 26.0375 21.7907 24.6219 21.3192C24.8792 19.9036 25.051 18.4452 25.0938 16.901H30.2412C30.1553 19.1313 29.4689 21.2761 28.3537 23.1635H28.3537ZM30.284 15.1421H25.1366C25.0938 13.555 24.9221 12.0108 24.6219 10.5521C25.9947 10.0375 27.2386 9.43692 28.3109 8.70777C29.4261 10.638 30.1122 12.8256 30.284 15.1421H30.284ZM24.2356 8.8792C23.5492 6.34845 22.4768 4.20368 21.1472 2.61632C23.6351 3.56001 25.7799 5.19019 27.3669 7.29184C26.4663 7.93545 25.3939 8.4504 24.2356 8.8792Z" fill="white"/>
</svg>
