<svg width="85" height="84" viewBox="0 0 85 84" fill="none" xmlns="http://www.w3.org/2000/svg">
<g filter="url(#filter0_b_373_462)">
<rect x="24.9277" y="0.386719" width="64" height="64" rx="20.4481" transform="rotate(22.4392 24.9277 0.386719)" fill="#7F8EA5" fill-opacity="0.31"/>
<path d="M55.4937 51.9271C50.11 59.2187 39.8332 60.7653 32.5398 55.3806C25.2495 49.9977 23.7022 39.7212 29.0866 32.4304C34.4697 25.1375 44.7467 23.5904 52.0379 28.9737C59.331 34.3577 60.8775 44.635 55.4937 51.9271Z" fill="black" fill-opacity="0.26"/>
<path d="M49.9489 41.6551C50.8098 39.6211 49.4917 38.0693 47.4843 36.7437L48.9363 34.0619L47.3037 33.1782L45.89 35.7893C45.4608 35.5569 45.0175 35.3279 44.577 35.1006L46.0004 32.4724L44.3688 31.5889L42.9165 34.2695C42.5591 34.0853 42.2085 33.904 41.8699 33.7209L41.8742 33.7125L39.623 32.4926L38.6794 34.2362C38.6794 34.2362 39.8974 34.866 39.8653 34.8773C40.5265 35.2355 40.5338 35.7359 40.4171 36.101L38.763 39.1561C38.8085 39.1811 38.867 39.2152 38.9294 39.2609C38.875 39.2316 38.817 39.1997 38.7568 39.1678L36.439 43.4473C36.2973 43.6397 35.9953 43.9052 35.5329 43.6559C35.5438 43.6857 34.3463 43.013 34.3463 43.013L32.9664 44.7868L35.0909 45.937C35.4861 46.1516 35.8714 46.3689 36.252 46.5781L34.7841 49.2907L36.4147 50.1739L37.8678 47.4904C38.3105 47.7421 38.7419 47.9803 39.1652 48.2089L37.7181 50.8797L39.3507 51.7635L40.8172 49.0564C43.6471 50.385 45.9424 50.7337 47.5764 48.2858C48.8926 46.315 48.4177 44.8605 47.0623 43.6428C48.2697 43.6734 49.3212 43.1447 49.9489 41.6551ZM44.5246 46.2178C43.428 48.2452 40.0819 46.1353 38.9749 45.5372L40.9212 41.9439C42.0278 42.5434 45.6695 44.1038 44.5246 46.2178ZM46.5106 40.7367C45.5116 42.5805 42.7334 40.7979 41.8118 40.299L43.5767 37.0399C44.4983 37.5388 47.5519 38.8132 46.5106 40.7367Z" fill="#FFC27B"/>
</g>
<defs>
<filter id="filter0_b_373_462" x="-21.4424" y="-21.5544" width="127.466" height="127.465" filterUnits="userSpaceOnUse" color-interpolation-filters="sRGB">
<feFlood flood-opacity="0" result="BackgroundImageFix"/>
<feGaussianBlur in="BackgroundImage" stdDeviation="10.9706"/>
<feComposite in2="SourceAlpha" operator="in" result="effect1_backgroundBlur_373_462"/>
<feBlend mode="normal" in="SourceGraphic" in2="effect1_backgroundBlur_373_462" result="shape"/>
</filter>
</defs>
</svg>
